<svg xmlns="http://www.w3.org/2000/svg" xmlns:xlink="http://www.w3.org/1999/xlink" width="60" zoomAndPan="magnify" viewBox="0 0 45 44.999999" height="60" preserveAspectRatio="xMidYMid meet" version="1.0"><defs><clipPath id="ef4623909c"><path d="M 0 2.675781 L 45 2.675781 L 45 36 L 0 36 Z M 0 2.675781 " clip-rule="nonzero"/></clipPath><clipPath id="f9efa3ed41"><path d="M 39 33 L 45 33 L 45 42.425781 L 39 42.425781 Z M 39 33 " clip-rule="nonzero"/></clipPath></defs><path fill="#1c1b1b" d="M 36.5625 29.527344 C 36.5625 31.082031 32.34375 33.746094 23.90625 33.746094 C 15.46875 33.746094 11.25 31.082031 11.25 29.527344 L 11.25 18.28125 L 22.976562 20.988281 C 23.285156 21.054688 23.597656 21.089844 23.90625 21.089844 C 24.21875 21.089844 24.527344 21.054688 24.855469 20.984375 L 36.5625 18.28125 Z M 24.222656 18.242188 C 24.117188 18.265625 24.011719 18.277344 23.90625 18.277344 C 23.800781 18.277344 23.695312 18.265625 23.589844 18.242188 L 5.308594 14.023438 C 4.671875 13.878906 4.21875 13.308594 4.21875 12.652344 C 4.21875 11.996094 4.671875 11.429688 5.308594 11.28125 L 23.589844 7.0625 C 23.695312 7.039062 23.800781 7.027344 23.90625 7.027344 C 24.011719 7.027344 24.117188 7.039062 24.222656 7.0625 L 42.503906 11.28125 C 43.140625 11.429688 43.59375 11.996094 43.59375 12.652344 C 43.59375 13.308594 43.140625 13.878906 42.503906 14.023438 Z M 24.222656 18.242188 " fill-opacity="1" fill-rule="nonzero"/><g clip-path="url(#ef4623909c)"><path fill="#f7f9f7" d="M 45 11.246094 C 45 9.269531 43.652344 7.578125 41.730469 7.136719 L 23.429688 2.914062 C 23.121094 2.84375 22.8125 2.808594 22.5 2.808594 C 22.191406 2.808594 21.878906 2.84375 21.550781 2.917969 L 3.269531 7.136719 C 1.34375 7.578125 0 9.269531 0 11.246094 C 0 13.226562 1.34375 14.914062 3.269531 15.359375 L 7.03125 16.226562 L 7.03125 28.121094 C 7.03125 31.855469 11.300781 35.152344 22.5 35.152344 C 33.695312 35.152344 37.96875 31.855469 37.96875 28.121094 L 37.96875 16.226562 L 41.730469 15.359375 C 43.652344 14.914062 45 13.226562 45 11.246094 M 35.15625 28.121094 C 35.15625 29.675781 30.9375 32.339844 22.5 32.339844 C 14.0625 32.339844 9.84375 29.675781 9.84375 28.121094 L 9.84375 16.875 L 21.570312 19.582031 C 21.878906 19.652344 22.1875 19.683594 22.5 19.683594 C 22.8125 19.683594 23.121094 19.652344 23.449219 19.578125 L 35.15625 16.875 Z M 22.816406 16.835938 C 22.710938 16.859375 22.605469 16.871094 22.5 16.871094 C 22.394531 16.871094 22.289062 16.859375 22.183594 16.835938 L 3.902344 12.617188 C 3.265625 12.472656 2.8125 11.902344 2.8125 11.246094 C 2.8125 10.589844 3.265625 10.023438 3.902344 9.875 L 22.183594 5.65625 C 22.289062 5.632812 22.394531 5.621094 22.5 5.621094 C 22.605469 5.621094 22.710938 5.632812 22.816406 5.65625 L 41.097656 9.875 C 41.734375 10.023438 42.1875 10.59375 42.1875 11.246094 C 42.1875 11.902344 41.734375 12.472656 41.097656 12.617188 Z M 22.816406 16.835938 " fill-opacity="1" fill-rule="nonzero"/></g><path fill="#f7f9f7" d="M 40.78125 18.277344 L 40.78125 30.933594 C 40.78125 31.710938 41.410156 32.339844 42.1875 32.339844 C 42.964844 32.339844 43.59375 31.710938 43.59375 30.933594 L 43.59375 18.277344 C 43.59375 17.5 42.964844 16.871094 42.1875 16.871094 C 41.410156 16.871094 40.78125 17.5 40.78125 18.277344 " fill-opacity="1" fill-rule="nonzero"/><g clip-path="url(#f9efa3ed41)"><path fill="#f7f9f7" d="M 42.1875 33.746094 C 40.632812 33.746094 39.375 37.820312 39.375 39.371094 C 39.375 40.921875 40.636719 42.183594 42.1875 42.183594 C 43.738281 42.183594 45 40.921875 45 39.371094 C 45 37.820312 43.738281 33.746094 42.1875 33.746094 " fill-opacity="1" fill-rule="nonzero"/></g></svg>