<svg xmlns="http://www.w3.org/2000/svg" xmlns:xlink="http://www.w3.org/1999/xlink" width="60" zoomAndPan="magnify" viewBox="0 0 45 44.999999" height="60" preserveAspectRatio="xMidYMid meet" version="1.0"><defs><clipPath id="91595a7ee4"><path d="M 1.386719 1.386719 L 43.386719 1.386719 L 43.386719 43.386719 L 1.386719 43.386719 Z M 1.386719 1.386719 " clip-rule="nonzero"/></clipPath></defs><g clip-path="url(#91595a7ee4)"><path fill="#f7f9f7" d="M 31.855469 43.609375 L 13.144531 43.609375 C 6.6875 43.609375 1.386719 38.3125 1.386719 31.855469 L 1.386719 13.144531 C 1.386719 6.6875 6.6875 1.386719 13.144531 1.386719 L 31.855469 1.386719 C 38.3125 1.386719 43.609375 6.6875 43.609375 13.144531 L 43.609375 31.855469 C 43.609375 38.3125 38.3125 43.609375 31.855469 43.609375 Z M 13.144531 4.035156 C 8.175781 4.035156 4.035156 8.175781 4.035156 13.144531 L 4.035156 31.855469 C 4.035156 36.820312 8.175781 40.960938 13.144531 40.960938 L 31.855469 40.960938 C 36.820312 40.960938 40.960938 36.820312 40.960938 31.855469 L 40.960938 13.144531 C 40.960938 8.175781 36.820312 4.035156 31.855469 4.035156 Z M 13.144531 4.035156 " fill-opacity="1" fill-rule="evenodd"/></g><path fill="#f7f9f7" d="M 22.5 29.785156 C 18.523438 29.785156 15.214844 26.472656 15.214844 22.5 C 15.214844 18.523438 18.523438 15.214844 22.5 15.214844 C 26.472656 15.214844 29.785156 18.523438 29.785156 22.5 C 29.785156 26.472656 26.472656 29.785156 22.5 29.785156 Z M 22.5 17.863281 C 19.933594 17.863281 17.863281 19.933594 17.863281 22.5 C 17.863281 25.066406 19.933594 27.136719 22.5 27.136719 C 25.066406 27.136719 27.136719 25.066406 27.136719 22.5 C 27.136719 19.933594 25.066406 17.863281 22.5 17.863281 Z M 22.5 17.863281 " fill-opacity="1" fill-rule="evenodd"/><path fill="#f7f9f7" d="M 22.5 34.421875 C 15.957031 34.421875 10.578125 29.039062 10.578125 22.5 C 10.578125 15.957031 15.957031 10.578125 22.5 10.578125 C 29.039062 10.578125 34.421875 15.957031 34.421875 22.5 C 34.421875 29.039062 29.039062 34.421875 22.5 34.421875 Z M 22.5 13.226562 C 17.367188 13.226562 13.226562 17.367188 13.226562 22.5 C 13.226562 27.632812 17.367188 31.769531 22.5 31.769531 C 27.632812 31.769531 31.769531 27.632812 31.769531 22.5 C 31.769531 17.367188 27.632812 13.226562 22.5 13.226562 Z M 22.5 13.226562 " fill-opacity="1" fill-rule="evenodd"/><path fill="#f7f9f7" d="M 12.730469 11.15625 L 9.832031 11.15625 C 9.085938 11.15625 8.507812 10.578125 8.507812 9.832031 C 8.507812 9.085938 9.085938 8.507812 9.832031 8.507812 L 12.730469 8.507812 C 13.476562 8.507812 14.054688 9.085938 14.054688 9.832031 C 14.054688 10.578125 13.476562 11.15625 12.730469 11.15625 Z M 12.730469 11.15625 " fill-opacity="1" fill-rule="evenodd"/></svg>