<svg xmlns="http://www.w3.org/2000/svg" xmlns:xlink="http://www.w3.org/1999/xlink" width="60" zoomAndPan="magnify" viewBox="0 0 45 44.999999" height="60" preserveAspectRatio="xMidYMid meet" version="1.0"><defs><clipPath id="5e2c7f1c3e"><path d="M 1.351562 1.351562 L 43.351562 1.351562 L 43.351562 43.351562 L 1.351562 43.351562 Z M 1.351562 1.351562 " clip-rule="nonzero"/></clipPath></defs><g clip-path="url(#5e2c7f1c3e)"><path fill="#f7f9f7" d="M 22.496094 1.351562 C 21.804688 1.351562 21.113281 1.382812 20.421875 1.453125 C 19.734375 1.519531 19.050781 1.621094 18.371094 1.757812 C 17.691406 1.890625 17.019531 2.058594 16.359375 2.261719 C 15.695312 2.460938 15.042969 2.695312 14.402344 2.960938 C 13.765625 3.226562 13.140625 3.519531 12.527344 3.847656 C 11.917969 4.171875 11.324219 4.527344 10.75 4.914062 C 10.171875 5.296875 9.617188 5.710938 9.082031 6.148438 C 8.546875 6.589844 8.035156 7.054688 7.542969 7.542969 C 7.054688 8.035156 6.589844 8.546875 6.148438 9.082031 C 5.710938 9.617188 5.296875 10.171875 4.914062 10.75 C 4.527344 11.324219 4.171875 11.917969 3.847656 12.527344 C 3.519531 13.140625 3.226562 13.765625 2.960938 14.402344 C 2.695312 15.042969 2.460938 15.695312 2.261719 16.359375 C 2.058594 17.019531 1.890625 17.691406 1.757812 18.371094 C 1.621094 19.050781 1.519531 19.734375 1.453125 20.421875 C 1.382812 21.113281 1.351562 21.804688 1.351562 22.496094 C 1.351562 23.1875 1.382812 23.878906 1.453125 24.570312 C 1.519531 25.257812 1.621094 25.941406 1.757812 26.621094 C 1.890625 27.300781 2.058594 27.972656 2.261719 28.636719 C 2.460938 29.296875 2.695312 29.949219 2.960938 30.589844 C 3.226562 31.230469 3.519531 31.855469 3.847656 32.464844 C 4.171875 33.074219 4.527344 33.667969 4.914062 34.246094 C 5.296875 34.820312 5.710938 35.375 6.148438 35.910156 C 6.589844 36.445312 7.054688 36.960938 7.542969 37.449219 C 8.035156 37.9375 8.546875 38.402344 9.082031 38.84375 C 9.617188 39.28125 10.171875 39.695312 10.75 40.078125 C 11.324219 40.464844 11.917969 40.820312 12.527344 41.144531 C 13.140625 41.472656 13.765625 41.769531 14.402344 42.035156 C 15.042969 42.296875 15.695312 42.53125 16.359375 42.730469 C 17.019531 42.933594 17.691406 43.101562 18.371094 43.238281 C 19.050781 43.371094 19.734375 43.472656 20.421875 43.542969 C 21.113281 43.609375 21.804688 43.644531 22.496094 43.644531 C 23.1875 43.644531 23.878906 43.609375 24.570312 43.542969 C 25.257812 43.472656 25.941406 43.371094 26.621094 43.238281 C 27.300781 43.101562 27.972656 42.933594 28.636719 42.730469 C 29.296875 42.53125 29.949219 42.296875 30.589844 42.035156 C 31.230469 41.769531 31.855469 41.472656 32.464844 41.144531 C 33.074219 40.820312 33.667969 40.464844 34.246094 40.078125 C 34.820312 39.695312 35.375 39.28125 35.910156 38.84375 C 36.445312 38.402344 36.960938 37.9375 37.449219 37.449219 C 37.9375 36.960938 38.402344 36.445312 38.84375 35.910156 C 39.28125 35.375 39.695312 34.820312 40.078125 34.246094 C 40.464844 33.667969 40.820312 33.074219 41.144531 32.464844 C 41.472656 31.855469 41.769531 31.230469 42.035156 30.589844 C 42.296875 29.949219 42.53125 29.296875 42.730469 28.636719 C 42.933594 27.972656 43.101562 27.300781 43.238281 26.621094 C 43.371094 25.941406 43.472656 25.257812 43.542969 24.570312 C 43.609375 23.878906 43.644531 23.1875 43.644531 22.496094 C 43.640625 21.804688 43.609375 21.113281 43.539062 20.425781 C 43.46875 19.734375 43.367188 19.050781 43.234375 18.371094 C 43.097656 17.695312 42.929688 17.023438 42.726562 16.359375 C 42.523438 15.699219 42.292969 15.046875 42.027344 14.40625 C 41.761719 13.769531 41.464844 13.144531 41.136719 12.53125 C 40.8125 11.921875 40.457031 11.328125 40.070312 10.753906 C 39.6875 10.179688 39.273438 9.625 38.835938 9.089844 C 38.394531 8.554688 37.929688 8.039062 37.441406 7.550781 C 36.953125 7.0625 36.441406 6.597656 35.90625 6.15625 C 35.371094 5.71875 34.816406 5.304688 34.238281 4.921875 C 33.664062 4.535156 33.070312 4.179688 32.460938 3.855469 C 31.847656 3.527344 31.222656 3.230469 30.585938 2.964844 C 29.945312 2.699219 29.292969 2.46875 28.632812 2.265625 C 27.96875 2.066406 27.300781 1.894531 26.621094 1.761719 C 25.941406 1.625 25.257812 1.523438 24.570312 1.453125 C 23.878906 1.386719 23.1875 1.351562 22.496094 1.351562 Z M 22.496094 39.796875 C 21.929688 39.796875 21.363281 39.769531 20.800781 39.714844 C 20.238281 39.660156 19.675781 39.578125 19.121094 39.464844 C 18.566406 39.355469 18.015625 39.21875 17.472656 39.054688 C 16.933594 38.886719 16.398438 38.699219 15.875 38.480469 C 15.351562 38.265625 14.839844 38.023438 14.339844 37.753906 C 13.839844 37.488281 13.355469 37.195312 12.882812 36.882812 C 12.414062 36.566406 11.957031 36.230469 11.519531 35.871094 C 11.082031 35.511719 10.664062 35.132812 10.261719 34.730469 C 9.863281 34.328125 9.480469 33.910156 9.121094 33.472656 C 8.761719 33.035156 8.425781 32.578125 8.109375 32.109375 C 7.796875 31.636719 7.503906 31.152344 7.238281 30.652344 C 6.96875 30.152344 6.730469 29.640625 6.511719 29.117188 C 6.296875 28.59375 6.105469 28.0625 5.941406 27.519531 C 5.773438 26.976562 5.636719 26.425781 5.527344 25.871094 C 5.417969 25.316406 5.332031 24.757812 5.277344 24.191406 C 5.222656 23.628906 5.195312 23.0625 5.195312 22.496094 C 5.195312 21.929688 5.222656 21.363281 5.277344 20.800781 C 5.332031 20.238281 5.417969 19.675781 5.527344 19.121094 C 5.636719 18.566406 5.773438 18.015625 5.941406 17.472656 C 6.105469 16.933594 6.296875 16.398438 6.511719 15.875 C 6.730469 15.351562 6.96875 14.839844 7.238281 14.339844 C 7.503906 13.839844 7.796875 13.355469 8.109375 12.882812 C 8.425781 12.414062 8.761719 11.957031 9.121094 11.519531 C 9.480469 11.082031 9.863281 10.664062 10.261719 10.261719 C 10.664062 9.863281 11.082031 9.480469 11.519531 9.121094 C 11.957031 8.761719 12.414062 8.425781 12.882812 8.109375 C 13.355469 7.796875 13.839844 7.503906 14.339844 7.238281 C 14.839844 6.96875 15.351562 6.730469 15.875 6.511719 C 16.398438 6.296875 16.933594 6.105469 17.472656 5.941406 C 18.015625 5.773438 18.566406 5.636719 19.121094 5.527344 C 19.675781 5.417969 20.238281 5.332031 20.800781 5.277344 C 21.363281 5.222656 21.929688 5.195312 22.496094 5.195312 C 23.0625 5.195312 23.628906 5.222656 24.191406 5.277344 C 24.757812 5.332031 25.316406 5.417969 25.871094 5.527344 C 26.425781 5.636719 26.976562 5.773438 27.519531 5.941406 C 28.0625 6.105469 28.59375 6.296875 29.117188 6.511719 C 29.640625 6.730469 30.152344 6.96875 30.652344 7.238281 C 31.152344 7.503906 31.636719 7.796875 32.109375 8.109375 C 32.578125 8.425781 33.035156 8.761719 33.472656 9.121094 C 33.910156 9.480469 34.328125 9.863281 34.730469 10.261719 C 35.132812 10.664062 35.511719 11.082031 35.871094 11.519531 C 36.230469 11.957031 36.566406 12.414062 36.882812 12.882812 C 37.195312 13.355469 37.488281 13.839844 37.753906 14.339844 C 38.023438 14.839844 38.265625 15.351562 38.480469 15.875 C 38.699219 16.398438 38.886719 16.933594 39.054688 17.472656 C 39.21875 18.015625 39.355469 18.566406 39.464844 19.121094 C 39.578125 19.675781 39.660156 20.238281 39.714844 20.800781 C 39.769531 21.363281 39.796875 21.929688 39.796875 22.496094 C 39.796875 23.0625 39.769531 23.628906 39.714844 24.191406 C 39.65625 24.753906 39.574219 25.316406 39.460938 25.871094 C 39.351562 26.425781 39.214844 26.976562 39.050781 27.515625 C 38.882812 28.058594 38.691406 28.589844 38.476562 29.113281 C 38.257812 29.636719 38.015625 30.148438 37.75 30.648438 C 37.480469 31.148438 37.191406 31.632812 36.875 32.105469 C 36.5625 32.574219 36.222656 33.03125 35.863281 33.46875 C 35.503906 33.90625 35.125 34.324219 34.726562 34.726562 C 34.324219 35.125 33.90625 35.503906 33.46875 35.863281 C 33.03125 36.222656 32.574219 36.5625 32.105469 36.875 C 31.632812 37.191406 31.148438 37.480469 30.648438 37.75 C 30.148438 38.015625 29.636719 38.257812 29.113281 38.476562 C 28.589844 38.691406 28.058594 38.882812 27.515625 39.050781 C 26.976562 39.214844 26.425781 39.351562 25.871094 39.460938 C 25.316406 39.574219 24.753906 39.65625 24.191406 39.714844 C 23.628906 39.769531 23.0625 39.796875 22.496094 39.796875 Z M 22.496094 39.796875 " fill-opacity="1" fill-rule="nonzero"/></g><path fill="#f7f9f7" d="M 27.699219 11.523438 C 27.519531 11.34375 27.3125 11.207031 27.078125 11.109375 C 26.839844 11.011719 26.597656 10.960938 26.339844 10.960938 C 26.085938 10.960938 25.839844 11.011719 25.605469 11.109375 C 25.371094 11.207031 25.164062 11.34375 24.980469 11.523438 L 15.371094 21.136719 C 15.191406 21.316406 15.050781 21.527344 14.953125 21.761719 C 14.855469 21.996094 14.808594 22.242188 14.808594 22.496094 C 14.808594 22.75 14.855469 22.996094 14.953125 23.230469 C 15.050781 23.46875 15.191406 23.675781 15.371094 23.855469 L 24.980469 33.46875 C 25.164062 33.644531 25.371094 33.777344 25.605469 33.871094 C 25.839844 33.964844 26.082031 34.007812 26.335938 34.007812 C 26.585938 34.003906 26.828125 33.957031 27.0625 33.859375 C 27.292969 33.761719 27.5 33.621094 27.675781 33.445312 C 27.855469 33.265625 27.992188 33.0625 28.089844 32.828125 C 28.1875 32.597656 28.238281 32.355469 28.238281 32.101562 C 28.242188 31.847656 28.195312 31.605469 28.101562 31.371094 C 28.011719 31.136719 27.875 30.929688 27.699219 30.75 L 19.449219 22.496094 L 27.699219 14.242188 C 27.878906 14.0625 28.019531 13.855469 28.117188 13.621094 C 28.214844 13.382812 28.261719 13.140625 28.261719 12.882812 C 28.261719 12.628906 28.214844 12.382812 28.117188 12.148438 C 28.019531 11.914062 27.878906 11.707031 27.699219 11.523438 Z M 27.699219 11.523438 " fill-opacity="1" fill-rule="nonzero"/></svg>