<svg xmlns="http://www.w3.org/2000/svg" xmlns:xlink="http://www.w3.org/1999/xlink" width="60" zoomAndPan="magnify" viewBox="0 0 45 44.999999" height="60" preserveAspectRatio="xMidYMid meet" version="1.0"><defs><clipPath id="a9d3a1c084"><path d="M 5.664062 0 L 39.414062 0 L 39.414062 45 L 5.664062 45 Z M 5.664062 0 " clip-rule="nonzero"/></clipPath><clipPath id="ab66695f2d"><path d="M 5.664062 0 L 39.414062 0 L 39.414062 45 L 5.664062 45 Z M 5.664062 0 " clip-rule="nonzero"/></clipPath></defs><path fill="#1c1b1b" d="M 24.0625 41.984375 C 24.035156 42.011719 23.949219 42.078125 23.875 42.125 C 23.859375 42.085938 23.757812 42.003906 23.695312 41.9375 C 18.550781 36.023438 9.871094 26.039062 9.871094 16.90625 C 9.871094 9.167969 16.167969 2.875 23.902344 2.875 C 31.636719 2.875 37.929688 9.167969 37.929688 16.90625 C 37.929688 26.039062 29.25 36.023438 24.0625 41.984375 " fill-opacity="1" fill-rule="evenodd"/><path fill="#f7f9f7" d="M 22.5 24.949219 C 27.140625 24.949219 30.914062 21.175781 30.914062 16.53125 C 30.914062 11.890625 27.140625 8.117188 22.5 8.117188 C 17.859375 8.117188 14.082031 11.890625 14.082031 16.53125 C 14.082031 21.175781 17.859375 24.949219 22.5 24.949219 M 22.5 9.519531 C 26.367188 9.519531 29.511719 12.664062 29.511719 16.53125 C 29.511719 20.402344 26.367188 23.546875 22.5 23.546875 C 18.632812 23.546875 15.484375 20.402344 15.484375 16.53125 C 15.484375 12.664062 18.632812 9.519531 22.5 9.519531 " fill-opacity="1" fill-rule="evenodd"/><g clip-path="url(#a9d3a1c084)"><path fill="#f7f9f7" d="M 22.5 0.0546875 C 13.214844 0.0546875 5.664062 7.515625 5.664062 16.890625 C 5.664062 26.710938 14.082031 36.757812 20.21875 43.816406 C 20.242188 43.84375 21.226562 44.945312 22.445312 44.945312 L 22.550781 44.945312 C 23.769531 44.945312 24.753906 43.84375 24.777344 43.816406 C 30.914062 36.757812 39.332031 26.710938 39.332031 16.890625 C 39.332031 7.515625 31.78125 0.0546875 22.5 0.0546875 M 22.660156 41.972656 C 22.632812 42 22.546875 42.066406 22.472656 42.113281 C 22.457031 42.070312 22.355469 41.988281 22.289062 41.925781 C 17.148438 36.007812 8.46875 26.027344 8.46875 16.890625 C 8.46875 9.15625 14.765625 2.863281 22.5 2.863281 C 30.234375 2.863281 36.527344 9.15625 36.527344 16.890625 C 36.527344 26.027344 27.847656 36.007812 22.660156 41.972656 " fill-opacity="1" fill-rule="evenodd"/></g><path fill="#f7f9f7" d="M 22.5 24.949219 C 27.140625 24.949219 30.914062 21.175781 30.914062 16.53125 C 30.914062 11.890625 27.140625 8.117188 22.5 8.117188 C 17.859375 8.117188 14.082031 11.890625 14.082031 16.53125 C 14.082031 21.175781 17.859375 24.949219 22.5 24.949219 M 22.5 9.519531 C 26.367188 9.519531 29.511719 12.664062 29.511719 16.53125 C 29.511719 20.402344 26.367188 23.546875 22.5 23.546875 C 18.632812 23.546875 15.484375 20.402344 15.484375 16.53125 C 15.484375 12.664062 18.632812 9.519531 22.5 9.519531 " fill-opacity="1" fill-rule="evenodd"/><g clip-path="url(#ab66695f2d)"><path fill="#f7f9f7" d="M 22.5 0.0546875 C 13.214844 0.0546875 5.664062 7.515625 5.664062 16.890625 C 5.664062 26.710938 14.082031 36.757812 20.21875 43.816406 C 20.242188 43.84375 21.226562 44.945312 22.445312 44.945312 L 22.550781 44.945312 C 23.769531 44.945312 24.753906 43.84375 24.777344 43.816406 C 30.914062 36.757812 39.332031 26.710938 39.332031 16.890625 C 39.332031 7.515625 31.78125 0.0546875 22.5 0.0546875 M 22.660156 41.972656 C 22.632812 42 22.546875 42.066406 22.472656 42.113281 C 22.457031 42.070312 22.355469 41.988281 22.289062 41.925781 C 17.148438 36.007812 8.46875 26.027344 8.46875 16.890625 C 8.46875 9.15625 14.765625 2.863281 22.5 2.863281 C 30.234375 2.863281 36.527344 9.15625 36.527344 16.890625 C 36.527344 26.027344 27.847656 36.007812 22.660156 41.972656 " fill-opacity="1" fill-rule="evenodd"/></g></svg>