<svg xmlns="http://www.w3.org/2000/svg" xmlns:xlink="http://www.w3.org/1999/xlink" width="60" zoomAndPan="magnify" viewBox="0 0 45 44.999999" height="60" preserveAspectRatio="xMidYMid meet" version="1.0"><defs><clipPath id="92dc50e6a7"><path d="M 1.644531 1.644531 L 43.644531 1.644531 L 43.644531 43.644531 L 1.644531 43.644531 Z M 1.644531 1.644531 " clip-rule="nonzero"/></clipPath></defs><g clip-path="url(#92dc50e6a7)"><path fill="#f7f9f7" d="M 22.496094 43.644531 C 23.1875 43.644531 23.878906 43.609375 24.570312 43.542969 C 25.257812 43.472656 25.941406 43.371094 26.621094 43.238281 C 27.300781 43.101562 27.972656 42.933594 28.636719 42.730469 C 29.296875 42.53125 29.949219 42.296875 30.589844 42.035156 C 31.230469 41.769531 31.855469 41.472656 32.464844 41.144531 C 33.074219 40.820312 33.667969 40.464844 34.246094 40.078125 C 34.820312 39.695312 35.375 39.28125 35.910156 38.84375 C 36.445312 38.402344 36.960938 37.9375 37.449219 37.449219 C 37.9375 36.960938 38.402344 36.445312 38.84375 35.910156 C 39.28125 35.375 39.695312 34.820312 40.078125 34.246094 C 40.464844 33.667969 40.820312 33.074219 41.144531 32.464844 C 41.472656 31.855469 41.769531 31.230469 42.035156 30.589844 C 42.296875 29.949219 42.53125 29.296875 42.730469 28.636719 C 42.933594 27.972656 43.101562 27.300781 43.238281 26.621094 C 43.371094 25.941406 43.472656 25.257812 43.542969 24.570312 C 43.609375 23.878906 43.644531 23.1875 43.644531 22.496094 C 43.644531 21.804688 43.609375 21.113281 43.542969 20.421875 C 43.472656 19.734375 43.371094 19.050781 43.238281 18.371094 C 43.101562 17.691406 42.933594 17.019531 42.730469 16.359375 C 42.53125 15.695312 42.296875 15.042969 42.035156 14.402344 C 41.769531 13.765625 41.472656 13.140625 41.144531 12.527344 C 40.820312 11.917969 40.464844 11.324219 40.078125 10.75 C 39.695312 10.171875 39.28125 9.617188 38.84375 9.082031 C 38.402344 8.546875 37.9375 8.035156 37.449219 7.542969 C 36.960938 7.054688 36.445312 6.589844 35.910156 6.148438 C 35.375 5.710938 34.820312 5.296875 34.246094 4.914062 C 33.667969 4.527344 33.074219 4.171875 32.464844 3.847656 C 31.855469 3.519531 31.230469 3.226562 30.589844 2.960938 C 29.949219 2.695312 29.296875 2.460938 28.636719 2.261719 C 27.972656 2.058594 27.300781 1.890625 26.621094 1.757812 C 25.941406 1.621094 25.257812 1.519531 24.570312 1.453125 C 23.878906 1.382812 23.1875 1.351562 22.496094 1.351562 C 21.804688 1.351562 21.113281 1.382812 20.421875 1.453125 C 19.734375 1.519531 19.050781 1.621094 18.371094 1.757812 C 17.691406 1.890625 17.019531 2.058594 16.359375 2.261719 C 15.695312 2.460938 15.042969 2.695312 14.402344 2.960938 C 13.765625 3.226562 13.140625 3.519531 12.527344 3.847656 C 11.917969 4.171875 11.324219 4.527344 10.75 4.914062 C 10.171875 5.296875 9.617188 5.710938 9.082031 6.148438 C 8.546875 6.589844 8.035156 7.054688 7.542969 7.542969 C 7.054688 8.035156 6.589844 8.546875 6.148438 9.082031 C 5.710938 9.617188 5.296875 10.171875 4.914062 10.75 C 4.527344 11.324219 4.171875 11.917969 3.847656 12.527344 C 3.519531 13.140625 3.226562 13.765625 2.960938 14.402344 C 2.695312 15.042969 2.460938 15.695312 2.261719 16.359375 C 2.058594 17.019531 1.890625 17.691406 1.757812 18.371094 C 1.621094 19.050781 1.519531 19.734375 1.453125 20.421875 C 1.382812 21.113281 1.351562 21.804688 1.351562 22.496094 C 1.351562 23.1875 1.386719 23.878906 1.453125 24.570312 C 1.523438 25.257812 1.625 25.941406 1.761719 26.621094 C 1.894531 27.300781 2.066406 27.96875 2.265625 28.632812 C 2.46875 29.292969 2.699219 29.945312 2.964844 30.585938 C 3.230469 31.222656 3.527344 31.847656 3.855469 32.460938 C 4.179688 33.070312 4.535156 33.664062 4.921875 34.238281 C 5.304688 34.816406 5.71875 35.371094 6.15625 35.90625 C 6.597656 36.441406 7.0625 36.953125 7.550781 37.441406 C 8.039062 37.929688 8.554688 38.394531 9.089844 38.835938 C 9.625 39.273438 10.179688 39.6875 10.753906 40.070312 C 11.328125 40.457031 11.921875 40.8125 12.53125 41.136719 C 13.144531 41.464844 13.769531 41.761719 14.40625 42.027344 C 15.046875 42.292969 15.699219 42.523438 16.359375 42.726562 C 17.023438 42.929688 17.695312 43.097656 18.371094 43.234375 C 19.050781 43.367188 19.734375 43.46875 20.425781 43.539062 C 21.113281 43.609375 21.804688 43.640625 22.496094 43.644531 Z M 22.496094 5.195312 C 23.0625 5.195312 23.628906 5.222656 24.191406 5.277344 C 24.757812 5.332031 25.316406 5.417969 25.871094 5.527344 C 26.425781 5.636719 26.976562 5.773438 27.519531 5.941406 C 28.0625 6.105469 28.59375 6.296875 29.117188 6.511719 C 29.640625 6.730469 30.152344 6.96875 30.652344 7.238281 C 31.152344 7.503906 31.636719 7.796875 32.109375 8.109375 C 32.578125 8.425781 33.035156 8.761719 33.472656 9.121094 C 33.910156 9.480469 34.328125 9.863281 34.730469 10.261719 C 35.132812 10.664062 35.511719 11.082031 35.871094 11.519531 C 36.230469 11.957031 36.566406 12.414062 36.882812 12.882812 C 37.195312 13.355469 37.488281 13.839844 37.753906 14.339844 C 38.023438 14.839844 38.265625 15.351562 38.480469 15.875 C 38.699219 16.398438 38.886719 16.933594 39.054688 17.472656 C 39.21875 18.015625 39.355469 18.566406 39.464844 19.121094 C 39.578125 19.675781 39.660156 20.238281 39.714844 20.800781 C 39.769531 21.363281 39.796875 21.929688 39.796875 22.496094 C 39.796875 23.0625 39.769531 23.628906 39.714844 24.191406 C 39.660156 24.757812 39.578125 25.316406 39.464844 25.871094 C 39.355469 26.425781 39.21875 26.976562 39.054688 27.519531 C 38.886719 28.0625 38.699219 28.59375 38.480469 29.117188 C 38.265625 29.640625 38.023438 30.152344 37.753906 30.652344 C 37.488281 31.152344 37.195312 31.636719 36.882812 32.109375 C 36.566406 32.578125 36.230469 33.035156 35.871094 33.472656 C 35.511719 33.910156 35.132812 34.328125 34.730469 34.730469 C 34.328125 35.132812 33.910156 35.511719 33.472656 35.871094 C 33.035156 36.230469 32.578125 36.566406 32.109375 36.882812 C 31.636719 37.195312 31.152344 37.488281 30.652344 37.753906 C 30.152344 38.023438 29.640625 38.265625 29.117188 38.480469 C 28.59375 38.699219 28.0625 38.886719 27.519531 39.054688 C 26.976562 39.21875 26.425781 39.355469 25.871094 39.464844 C 25.316406 39.578125 24.757812 39.660156 24.191406 39.714844 C 23.628906 39.769531 23.0625 39.796875 22.496094 39.796875 C 21.929688 39.796875 21.363281 39.769531 20.800781 39.714844 C 20.238281 39.660156 19.675781 39.578125 19.121094 39.464844 C 18.566406 39.355469 18.015625 39.21875 17.472656 39.054688 C 16.933594 38.886719 16.398438 38.699219 15.875 38.480469 C 15.351562 38.265625 14.839844 38.023438 14.339844 37.753906 C 13.839844 37.488281 13.355469 37.195312 12.882812 36.882812 C 12.414062 36.566406 11.957031 36.230469 11.519531 35.871094 C 11.082031 35.511719 10.664062 35.132812 10.261719 34.730469 C 9.863281 34.328125 9.480469 33.910156 9.121094 33.472656 C 8.761719 33.035156 8.425781 32.578125 8.109375 32.109375 C 7.796875 31.636719 7.503906 31.152344 7.238281 30.652344 C 6.96875 30.152344 6.730469 29.640625 6.511719 29.117188 C 6.296875 28.59375 6.105469 28.0625 5.941406 27.519531 C 5.773438 26.976562 5.636719 26.425781 5.527344 25.871094 C 5.417969 25.316406 5.332031 24.757812 5.277344 24.191406 C 5.222656 23.628906 5.195312 23.0625 5.195312 22.496094 C 5.195312 21.929688 5.222656 21.363281 5.28125 20.800781 C 5.335938 20.238281 5.417969 19.679688 5.53125 19.121094 C 5.640625 18.566406 5.78125 18.019531 5.945312 17.476562 C 6.109375 16.933594 6.300781 16.402344 6.515625 15.878906 C 6.734375 15.355469 6.976562 14.84375 7.242188 14.34375 C 7.511719 13.84375 7.800781 13.359375 8.117188 12.890625 C 8.429688 12.417969 8.769531 11.964844 9.128906 11.527344 C 9.488281 11.085938 9.867188 10.667969 10.269531 10.269531 C 10.667969 9.867188 11.085938 9.488281 11.527344 9.128906 C 11.964844 8.769531 12.417969 8.429688 12.890625 8.117188 C 13.359375 7.800781 13.84375 7.511719 14.34375 7.242188 C 14.84375 6.976562 15.355469 6.734375 15.878906 6.515625 C 16.402344 6.300781 16.933594 6.109375 17.476562 5.945312 C 18.019531 5.78125 18.566406 5.640625 19.121094 5.53125 C 19.679688 5.417969 20.238281 5.335938 20.800781 5.28125 C 21.363281 5.222656 21.929688 5.195312 22.496094 5.195312 Z M 22.496094 5.195312 " fill-opacity="1" fill-rule="nonzero"/></g><path fill="#f7f9f7" d="M 17.292969 33.46875 C 17.472656 33.648438 17.679688 33.785156 17.917969 33.882812 C 18.152344 33.980469 18.398438 34.03125 18.652344 34.03125 C 18.90625 34.03125 19.152344 33.980469 19.386719 33.882812 C 19.621094 33.785156 19.832031 33.648438 20.011719 33.46875 L 29.621094 23.855469 C 29.804688 23.675781 29.941406 23.46875 30.039062 23.230469 C 30.136719 22.996094 30.1875 22.75 30.1875 22.496094 C 30.1875 22.242188 30.136719 21.996094 30.039062 21.761719 C 29.941406 21.527344 29.804688 21.316406 29.621094 21.136719 L 20.011719 11.523438 C 19.828125 11.351562 19.621094 11.214844 19.386719 11.121094 C 19.152344 11.027344 18.910156 10.984375 18.660156 10.984375 C 18.40625 10.988281 18.164062 11.039062 17.933594 11.136719 C 17.699219 11.234375 17.496094 11.371094 17.316406 11.546875 C 17.136719 11.726562 17 11.933594 16.902344 12.164062 C 16.804688 12.398438 16.753906 12.640625 16.753906 12.890625 C 16.75 13.144531 16.796875 13.386719 16.890625 13.621094 C 16.984375 13.855469 17.117188 14.0625 17.292969 14.242188 L 25.546875 22.496094 L 17.292969 30.75 C 17.113281 30.929688 16.972656 31.136719 16.875 31.371094 C 16.777344 31.609375 16.730469 31.855469 16.730469 32.109375 C 16.730469 32.363281 16.777344 32.609375 16.875 32.84375 C 16.972656 33.078125 17.113281 33.289062 17.292969 33.46875 Z M 17.292969 33.46875 " fill-opacity="1" fill-rule="nonzero"/></svg>