<svg xmlns="http://www.w3.org/2000/svg" xmlns:xlink="http://www.w3.org/1999/xlink" width="60" zoomAndPan="magnify" viewBox="0 0 45 44.999999" height="60" preserveAspectRatio="xMidYMid meet" version="1.0"><defs><clipPath id="43abc3d776"><path d="M 0.710938 0.710938 L 44.210938 0.710938 L 44.210938 44.210938 L 0.710938 44.210938 Z M 0.710938 0.710938 " clip-rule="nonzero"/></clipPath></defs><path fill="#1c1b1b" d="M 42.921875 38.835938 C 42.921875 40.335938 41.699219 41.558594 40.199219 41.558594 L 7.519531 41.558594 C 6.019531 41.558594 4.796875 40.335938 4.796875 38.835938 L 4.796875 11.605469 C 4.796875 10.855469 5.40625 10.242188 6.160156 10.242188 L 7.519531 10.242188 L 7.519531 37.476562 C 7.519531 38.226562 8.128906 38.835938 8.882812 38.835938 C 9.636719 38.835938 10.242188 38.226562 10.242188 37.476562 L 10.242188 4.796875 C 10.242188 4.046875 10.855469 3.4375 11.605469 3.4375 L 41.558594 3.4375 C 42.3125 3.4375 42.921875 4.046875 42.921875 4.796875 Z M 42.921875 38.835938 " fill-opacity="1" fill-rule="evenodd"/><g clip-path="url(#43abc3d776)"><path fill="#f7f9f7" d="M 40.199219 0.710938 L 10.242188 0.710938 C 7.988281 0.710938 6.160156 2.539062 6.160156 4.796875 L 6.160156 7.519531 L 4.796875 7.519531 C 2.539062 7.519531 0.710938 9.347656 0.710938 11.605469 L 0.710938 38.835938 C 0.710938 41.84375 3.152344 44.28125 6.160156 44.28125 L 38.835938 44.28125 C 41.84375 44.28125 44.28125 41.84375 44.28125 38.835938 L 44.28125 4.796875 C 44.28125 2.539062 42.453125 0.710938 40.199219 0.710938 M 41.558594 38.835938 C 41.558594 40.335938 40.339844 41.558594 38.835938 41.558594 L 6.160156 41.558594 C 4.65625 41.558594 3.4375 40.335938 3.4375 38.835938 L 3.4375 11.605469 C 3.4375 10.855469 4.046875 10.242188 4.796875 10.242188 L 6.160156 10.242188 L 6.160156 37.476562 C 6.160156 38.226562 6.765625 38.835938 7.519531 38.835938 C 8.273438 38.835938 8.882812 38.226562 8.882812 37.476562 L 8.882812 4.796875 C 8.882812 4.046875 9.492188 3.4375 10.242188 3.4375 L 40.199219 3.4375 C 40.949219 3.4375 41.558594 4.046875 41.558594 4.796875 Z M 41.558594 38.835938 " fill-opacity="1" fill-rule="evenodd"/></g><path fill="#f7f9f7" d="M 27.261719 18.421875 L 38.15625 18.421875 C 38.53125 18.421875 38.835938 18.113281 38.835938 17.738281 C 38.835938 17.363281 38.53125 17.058594 38.15625 17.058594 L 27.261719 17.058594 C 26.886719 17.058594 26.582031 17.363281 26.582031 17.738281 C 26.582031 18.117188 26.886719 18.421875 27.261719 18.421875 " fill-opacity="1" fill-rule="evenodd"/><path fill="#f7f9f7" d="M 27.261719 14.335938 L 38.15625 14.335938 C 38.53125 14.335938 38.835938 14.03125 38.835938 13.65625 C 38.835938 13.277344 38.53125 12.972656 38.15625 12.972656 L 27.261719 12.972656 C 26.886719 12.972656 26.582031 13.277344 26.582031 13.65625 C 26.582031 14.03125 26.886719 14.335938 27.261719 14.335938 " fill-opacity="1" fill-rule="evenodd"/><path fill="#f7f9f7" d="M 27.261719 10.25 L 38.15625 10.25 C 38.53125 10.25 38.835938 9.945312 38.835938 9.570312 C 38.835938 9.195312 38.53125 8.890625 38.15625 8.890625 L 27.261719 8.890625 C 26.886719 8.890625 26.582031 9.195312 26.582031 9.570312 C 26.582031 9.945312 26.886719 10.25 27.261719 10.25 " fill-opacity="1" fill-rule="evenodd"/><path fill="#f7f9f7" d="M 23.179688 37.480469 L 12.285156 37.480469 C 11.910156 37.480469 11.605469 37.785156 11.605469 38.160156 C 11.605469 38.539062 11.910156 38.84375 12.285156 38.84375 L 23.179688 38.84375 C 23.554688 38.84375 23.859375 38.539062 23.859375 38.160156 C 23.859375 37.785156 23.554688 37.480469 23.179688 37.480469 " fill-opacity="1" fill-rule="evenodd"/><path fill="#f7f9f7" d="M 23.179688 33.394531 L 12.285156 33.394531 C 11.910156 33.394531 11.605469 33.703125 11.605469 34.078125 C 11.605469 34.453125 11.910156 34.757812 12.285156 34.757812 L 23.179688 34.757812 C 23.554688 34.757812 23.859375 34.453125 23.859375 34.078125 C 23.859375 33.703125 23.554688 33.394531 23.179688 33.394531 " fill-opacity="1" fill-rule="evenodd"/><path fill="#f7f9f7" d="M 23.179688 29.3125 L 12.285156 29.3125 C 11.910156 29.3125 11.605469 29.617188 11.605469 29.992188 C 11.605469 30.371094 11.910156 30.671875 12.285156 30.671875 L 23.179688 30.671875 C 23.554688 30.671875 23.859375 30.367188 23.859375 29.992188 C 23.859375 29.617188 23.554688 29.3125 23.179688 29.3125 " fill-opacity="1" fill-rule="evenodd"/><path fill="#f7f9f7" d="M 38.15625 37.480469 L 27.261719 37.480469 C 26.886719 37.480469 26.582031 37.785156 26.582031 38.160156 C 26.582031 38.539062 26.886719 38.84375 27.261719 38.84375 L 38.15625 38.84375 C 38.53125 38.84375 38.835938 38.539062 38.835938 38.160156 C 38.835938 37.785156 38.53125 37.480469 38.15625 37.480469 " fill-opacity="1" fill-rule="evenodd"/><path fill="#f7f9f7" d="M 38.15625 33.394531 L 27.261719 33.394531 C 26.886719 33.394531 26.582031 33.703125 26.582031 34.078125 C 26.582031 34.453125 26.886719 34.757812 27.261719 34.757812 L 38.15625 34.757812 C 38.53125 34.757812 38.835938 34.453125 38.835938 34.078125 C 38.835938 33.703125 38.53125 33.394531 38.15625 33.394531 " fill-opacity="1" fill-rule="evenodd"/><path fill="#f7f9f7" d="M 38.15625 29.3125 L 27.261719 29.3125 C 26.886719 29.3125 26.582031 29.617188 26.582031 29.992188 C 26.582031 30.371094 26.886719 30.671875 27.261719 30.671875 L 38.15625 30.671875 C 38.53125 30.671875 38.835938 30.367188 38.835938 29.992188 C 38.835938 29.617188 38.53125 29.3125 38.15625 29.3125 " fill-opacity="1" fill-rule="evenodd"/><path fill="#f7f9f7" d="M 38.15625 21.140625 L 12.285156 21.140625 C 11.910156 21.140625 11.605469 21.449219 11.605469 21.820312 C 11.605469 22.199219 11.910156 22.503906 12.285156 22.503906 L 38.15625 22.503906 C 38.53125 22.503906 38.835938 22.199219 38.835938 21.820312 C 38.835938 21.449219 38.53125 21.140625 38.15625 21.140625 " fill-opacity="1" fill-rule="evenodd"/><path fill="#f7f9f7" d="M 38.15625 25.226562 L 12.285156 25.226562 C 11.910156 25.226562 11.605469 25.53125 11.605469 25.90625 C 11.605469 26.285156 11.910156 26.585938 12.285156 26.585938 L 38.15625 26.585938 C 38.53125 26.585938 38.835938 26.285156 38.835938 25.90625 C 38.835938 25.53125 38.53125 25.226562 38.15625 25.226562 " fill-opacity="1" fill-rule="evenodd"/><path fill="#f7f9f7" d="M 12.964844 18.414062 L 22.496094 18.414062 C 23.25 18.414062 23.859375 17.800781 23.859375 17.050781 L 23.859375 7.527344 C 23.859375 6.773438 23.25 6.164062 22.496094 6.164062 L 12.964844 6.164062 C 12.214844 6.164062 11.605469 6.773438 11.605469 7.527344 L 11.605469 17.050781 C 11.605469 17.804688 12.214844 18.414062 12.964844 18.414062 M 14.328125 8.882812 L 21.136719 8.882812 L 21.136719 15.691406 L 14.328125 15.691406 Z M 14.328125 8.882812 " fill-opacity="1" fill-rule="evenodd"/></svg>